# Blender v2.80 (sub 75) OBJ File: 'pepi2_pyramide.blend'
# www.blender.org
mtllib pepi2_descenderie.mtl
o Pepi2_Descenderie_ref_Cube.001
v 542.064148 53.491058 -624.920532
v 541.487671 54.750000 -624.871460
v 541.936768 53.491058 -626.418152
v 541.360352 54.750000 -626.369141
v 542.945984 55.481312 -626.503967
v 543.108582 54.031483 -626.517822
v 543.235901 54.031483 -625.020142
v 543.073364 55.481312 -625.006348
v 528.497559 47.234203 -623.766846
v 528.351318 48.750278 -625.262878
v 528.478638 48.750278 -623.765259
v 528.370239 47.234200 -625.264526
v 532.577087 50.699207 -625.622253
v 535.036987 51.833694 -625.831421
v 535.715576 50.563118 -624.380615
v 533.247803 49.424980 -624.170776
v 532.704468 50.699207 -624.124573
v 535.164307 51.833694 -624.333740
v 533.120422 49.424980 -625.668457
v 535.588196 50.563118 -625.878296
vt 0.375000 0.253383
vt 0.625000 0.263518
vt 0.625000 0.340336
vt 0.375000 0.339733
vt 0.375000 0.500000
vt 0.625000 0.500000
vt 0.625000 0.500000
vt 0.375000 0.500000
vt 0.625000 0.750000
vt 0.375000 0.750000
vt 0.375000 0.750000
vt 0.625000 0.750000
vt 0.784664 0.500000
vt 0.861482 0.500000
vt 0.861482 0.750000
vt 0.784664 0.750000
vt 0.375000 0.910266
vt 0.625000 0.909664
vt 0.625000 0.986482
vt 0.375000 0.996617
vt 0.259594 0.750000
vt 0.259594 0.500000
vt 0.625000 0.864948
vt 0.375000 0.865406
vt 0.375000 0.384594
vt 0.625000 0.385052
vt 0.128383 0.750000
vt 0.128383 0.500000
vt 0.214733 0.500000
vt 0.214734 0.750000
vt 0.739948 0.750000
vt 0.739948 0.500000
vt 0.000000 0.000000
vt 0.000000 0.000000
vt 0.000000 0.000000
vt 0.000000 0.000000
vn -0.0848 0.0000 -0.9964
vn -0.0847 0.0000 -0.9964
vn 0.0847 -0.0000 0.9964
vn 0.4161 -0.9086 -0.0354
vn -0.4160 0.9087 0.0354
vn 0.4161 -0.9087 -0.0354
vn -0.4161 0.9087 0.0354
usemtl None
s off
f 12/1/1 10/2/1 13/3/1 19/4/1
f 3/5/2 4/6/2 5/7/2 6/8/2
f 2/9/3 1/10/3 7/11/3 8/12/3
f 1/10/4 3/5/4 6/8/4 7/11/4
f 13/13/5 10/14/5 11/15/5 17/16/5
f 16/17/3 17/18/3 11/19/3 9/20/3
f 15/21/6 20/22/6 3/5/6 1/10/6
f 1/10/3 2/9/3 18/23/3 15/24/3
f 20/25/2 14/26/2 4/6/2 3/5/2
f 9/27/6 12/28/6 19/29/6 16/30/6
f 20/22/4 15/21/4 16/30/4 19/29/4
f 14/26/2 20/25/2 19/4/2 13/3/2
f 13/13/7 17/16/7 18/31/7 14/32/7
f 17/18/3 16/17/3 15/24/3 18/23/3
f 4/6/7 14/32/7 18/31/7 2/9/7
f 5/33/5 4/34/5 2/35/5 8/36/5
