{
    "asset" : {
        "generator" : "Khronos glTF Blender I/O v1.0.5",
        "version" : "2.0"
    },
    "scene" : 0,
    "scenes" : [
        {
            "name" : "Scene",
            "nodes" : [
                0,
                5
            ]
        }
    ],
    "nodes" : [
        {
            "mesh" : 0,
            "name" : "RdC.RESTIT.004",
            "rotation" : [
                0,
                -0.5171388983726501,
                0,
                0.8559014797210693
            ],
            "translation" : [
                10.46337890625,
                29.800935745239258,
                -1.7628173828125
            ]
        },
        {
            "mesh" : 1,
            "name" : "01.RESTIT.architrave_parcours",
            "rotation" : [
                -0.7071067094802856,
                0,
                0,
                0.7071068286895752
            ],
            "translation" : [
                -0.1658649444580078,
                0.16634750366210938,
                -0.12762266397476196
            ]
        },
        {
            "mesh" : 2,
            "name" : "01.RESTIT.corniche",
            "rotation" : [
                -0.7071067094802856,
                0,
                0,
                0.7071068286895752
            ],
            "translation" : [
                -0.1658649444580078,
                0.16634750366210938,
                -0.12762266397476196
            ]
        },
        {
            "mesh" : 3,
            "name" : "01.RESTIT.fronton.001",
            "rotation" : [
                -0.7071067094802856,
                0,
                0,
                0.7071068286895752
            ],
            "translation" : [
                1.4769086837768555,
                0.18777084350585938,
                -0.5627169013023376
            ]
        },
        {
            "mesh" : 4,
            "name" : "01.RESTIT.colonne.fut",
            "rotation" : [
                0,
                0,
                -1,
                5.960464477539063e-08
            ],
            "translation" : [
                2.946455955505371,
                0,
                0
            ]
        },
        {
            "children" : [
                1,
                2,
                3,
                4
            ],
            "mesh" : 4,
            "name" : "01.RESTIT.colonne.fut.001",
            "rotation" : [
                0.13877414166927338,
                0.6933555603027344,
                -0.6933553218841553,
                0.13877393305301666
            ],
            "translation" : [
                24.857439041137695,
                31.426471710205078,
                -19.303255081176758
            ]
        }
    ],
    "materials" : [
        {
            "doubleSided" : true,
            "name" : "01.colonne",
            "pbrMetallicRoughness" : {
                "baseColorTexture" : {
                    "index" : 0,
                    "texCoord" : 0
                },
                "metallicFactor" : 0,
                "roughnessFactor" : 0.5
            }
        }
    ],
    "meshes" : [
        {
            "name" : "RETOPO.048",
            "primitives" : [
                {
                    "attributes" : {
                        "POSITION" : 0,
                        "NORMAL" : 1,
                        "TEXCOORD_0" : 2,
                        "TEXCOORD_1" : 3,
                        "COLOR_0" : 4
                    },
                    "indices" : 5,
                    "material" : 0
                }
            ]
        },
        {
            "name" : "CUCurve.000",
            "primitives" : [
                {
                    "attributes" : {
                        "POSITION" : 6,
                        "NORMAL" : 7,
                        "TEXCOORD_0" : 8,
                        "TEXCOORD_1" : 9,
                        "COLOR_0" : 10
                    },
                    "indices" : 11,
                    "material" : 0
                }
            ]
        },
        {
            "name" : "Mesh.010",
            "primitives" : [
                {
                    "attributes" : {
                        "POSITION" : 12,
                        "NORMAL" : 13,
                        "TEXCOORD_0" : 14,
                        "TEXCOORD_1" : 15
                    },
                    "indices" : 16,
                    "material" : 0
                }
            ]
        },
        {
            "name" : "Mesh.012",
            "primitives" : [
                {
                    "attributes" : {
                        "POSITION" : 17,
                        "NORMAL" : 18,
                        "TEXCOORD_0" : 19,
                        "TEXCOORD_1" : 20
                    },
                    "indices" : 21,
                    "material" : 0
                }
            ]
        },
        {
            "name" : "01.RESTIT.colonne.fut",
            "primitives" : [
                {
                    "attributes" : {
                        "POSITION" : 22,
                        "NORMAL" : 23,
                        "TEXCOORD_0" : 24,
                        "TEXCOORD_1" : 25
                    },
                    "indices" : 26,
                    "material" : 0
                }
            ]
        }
    ],
    "textures" : [
        {
            "source" : 0
        }
    ],
    "images" : [
        {
            "bufferView" : 6,
            "mimeType" : "image/jpeg",
            "name" : "brique_colonne"
        }
    ],
    "accessors" : [
        {
            "bufferView" : 0,
            "componentType" : 5126,
            "count" : 192,
            "max" : [
                -8.012019157409668,
                -1.3879436254501343,
                -17.953758239746094
            ],
            "min" : [
                -11.380573272705078,
                -1.457950234413147,
                -21.20037078857422
            ],
            "type" : "VEC3"
        },
        {
            "bufferView" : 1,
            "componentType" : 5126,
            "count" : 192,
            "type" : "VEC3"
        },
        {
            "bufferView" : 2,
            "componentType" : 5126,
            "count" : 192,
            "type" : "VEC2"
        },
        {
            "bufferView" : 3,
            "componentType" : 5126,
            "count" : 192,
            "type" : "VEC2"
        },
        {
            "bufferView" : 4,
            "componentType" : 5126,
            "count" : 192,
            "type" : "VEC4"
        },
        {
            "bufferView" : 5,
            "componentType" : 5123,
            "count" : 264,
            "type" : "SCALAR"
        },
        {
            "bufferView" : 7,
            "componentType" : 5126,
            "count" : 140,
            "max" : [
                3.3889598846435547,
                0.35073089599609375,
                0.02142898179590702
            ],
            "min" : [
                -0.02143007330596447,
                1.7896684312290745e-06,
                -1.2564704418182373
            ],
            "type" : "VEC3"
        },
        {
            "bufferView" : 8,
            "componentType" : 5126,
            "count" : 140,
            "type" : "VEC3"
        },
        {
            "bufferView" : 9,
            "componentType" : 5126,
            "count" : 140,
            "type" : "VEC2"
        },
        {
            "bufferView" : 10,
            "componentType" : 5126,
            "count" : 140,
            "type" : "VEC2"
        },
        {
            "bufferView" : 11,
            "componentType" : 5126,
            "count" : 140,
            "type" : "VEC4"
        },
        {
            "bufferView" : 12,
            "componentType" : 5123,
            "count" : 240,
            "type" : "SCALAR"
        },
        {
            "bufferView" : 13,
            "componentType" : 5126,
            "count" : 96,
            "max" : [
                3.470775604248047,
                0.43509620428085327,
                0.10342495143413544
            ],
            "min" : [
                -0.10342604666948318,
                0.35072898864746094,
                -1.236281156539917
            ],
            "type" : "VEC3"
        },
        {
            "bufferView" : 14,
            "componentType" : 5126,
            "count" : 96,
            "type" : "VEC3"
        },
        {
            "bufferView" : 15,
            "componentType" : 5126,
            "count" : 96,
            "type" : "VEC2"
        },
        {
            "bufferView" : 16,
            "componentType" : 5126,
            "count" : 96,
            "type" : "VEC2"
        },
        {
            "bufferView" : 17,
            "componentType" : 5123,
            "count" : 144,
            "type" : "SCALAR"
        },
        {
            "bufferView" : 18,
            "componentType" : 5126,
            "count" : 150,
            "max" : [
                1.9040428400039673,
                0.9403213262557983,
                0.1414799988269806
            ],
            "min" : [
                -1.8288830518722534,
                -0.0026137232780456543,
                -1.257705569267273
            ],
            "type" : "VEC3"
        },
        {
            "bufferView" : 19,
            "componentType" : 5126,
            "count" : 150,
            "type" : "VEC3"
        },
        {
            "bufferView" : 20,
            "componentType" : 5126,
            "count" : 150,
            "type" : "VEC2"
        },
        {
            "bufferView" : 21,
            "componentType" : 5126,
            "count" : 150,
            "type" : "VEC2"
        },
        {
            "bufferView" : 22,
            "componentType" : 5123,
            "count" : 222,
            "type" : "SCALAR"
        },
        {
            "bufferView" : 23,
            "componentType" : 5126,
            "count" : 594,
            "max" : [
                0.20292508602142334,
                0.20292508602142334,
                3.085683822631836
            ],
            "min" : [
                -0.20292508602142334,
                -0.20292508602142334,
                -0.0852193832397461
            ],
            "type" : "VEC3"
        },
        {
            "bufferView" : 24,
            "componentType" : 5126,
            "count" : 594,
            "type" : "VEC3"
        },
        {
            "bufferView" : 25,
            "componentType" : 5126,
            "count" : 594,
            "type" : "VEC2"
        },
        {
            "bufferView" : 26,
            "componentType" : 5126,
            "count" : 594,
            "type" : "VEC2"
        },
        {
            "bufferView" : 27,
            "componentType" : 5123,
            "count" : 1728,
            "type" : "SCALAR"
        }
    ],
    "bufferViews" : [
        {
            "buffer" : 0,
            "byteLength" : 2304,
            "byteOffset" : 0
        },
        {
            "buffer" : 0,
            "byteLength" : 2304,
            "byteOffset" : 2304
        },
        {
            "buffer" : 0,
            "byteLength" : 1536,
            "byteOffset" : 4608
        },
        {
            "buffer" : 0,
            "byteLength" : 1536,
            "byteOffset" : 6144
        },
        {
            "buffer" : 0,
            "byteLength" : 3072,
            "byteOffset" : 7680
        },
        {
            "buffer" : 0,
            "byteLength" : 528,
            "byteOffset" : 10752
        },
        {
            "buffer" : 0,
            "byteLength" : 857551,
            "byteOffset" : 11280
        },
        {
            "buffer" : 0,
            "byteLength" : 1680,
            "byteOffset" : 868832
        },
        {
            "buffer" : 0,
            "byteLength" : 1680,
            "byteOffset" : 870512
        },
        {
            "buffer" : 0,
            "byteLength" : 1120,
            "byteOffset" : 872192
        },
        {
            "buffer" : 0,
            "byteLength" : 1120,
            "byteOffset" : 873312
        },
        {
            "buffer" : 0,
            "byteLength" : 2240,
            "byteOffset" : 874432
        },
        {
            "buffer" : 0,
            "byteLength" : 480,
            "byteOffset" : 876672
        },
        {
            "buffer" : 0,
            "byteLength" : 1152,
            "byteOffset" : 877152
        },
        {
            "buffer" : 0,
            "byteLength" : 1152,
            "byteOffset" : 878304
        },
        {
            "buffer" : 0,
            "byteLength" : 768,
            "byteOffset" : 879456
        },
        {
            "buffer" : 0,
            "byteLength" : 768,
            "byteOffset" : 880224
        },
        {
            "buffer" : 0,
            "byteLength" : 288,
            "byteOffset" : 880992
        },
        {
            "buffer" : 0,
            "byteLength" : 1800,
            "byteOffset" : 881280
        },
        {
            "buffer" : 0,
            "byteLength" : 1800,
            "byteOffset" : 883080
        },
        {
            "buffer" : 0,
            "byteLength" : 1200,
            "byteOffset" : 884880
        },
        {
            "buffer" : 0,
            "byteLength" : 1200,
            "byteOffset" : 886080
        },
        {
            "buffer" : 0,
            "byteLength" : 444,
            "byteOffset" : 887280
        },
        {
            "buffer" : 0,
            "byteLength" : 7128,
            "byteOffset" : 887724
        },
        {
            "buffer" : 0,
            "byteLength" : 7128,
            "byteOffset" : 894852
        },
        {
            "buffer" : 0,
            "byteLength" : 4752,
            "byteOffset" : 901980
        },
        {
            "buffer" : 0,
            "byteLength" : 4752,
            "byteOffset" : 906732
        },
        {
            "buffer" : 0,
            "byteLength" : 3456,
            "byteOffset" : 911484
        }
    ],
    "buffers" : [
        {
            "byteLength" : 914940,
            "uri" : "data:application/octet-stream;base64,"
        }
    ]
}
