<svg xmlns="http://www.w3.org/2000/svg" xmlns:xlink="http://www.w3.org/1999/xlink" version="1.1" id="Calque_1" x="0px" y="0px" width="500px" height="100px" viewBox="-215 -45 500 100" enable-background="new -210.803 -39.824 486.467 91.902" xml:space="preserve">
    <filter id="blurshadow" width="200%" height="200%">
      <feGaussianBlur result="blurOut" in="SourceAlpha" stdDeviation="4" />
      <feMerge>
	  <feMergeNode/>
	  <feMergeNode in="SourceGraphic"/>
	  </feMerge>
    </filter>
	<filter id="sharpshadow" width="200%" height="200%">
      <feOffset dx="2" dy="2" result="offsetshadow"/>
      <feMerge>
	  <feMergeNode/>
	  <feMergeNode in="SourceGraphic"/>
	  </feMerge>
    </filter>
<style>.style_white{fill:	#EEEEEE; stroke:	#BBBBBB; stroke-opacity:0.6;}.style_grey{fill:	#CCCCCC; stroke:	#888888; stroke-opacity:0.6;}</style><path d="M-147.647-5.636c0 2.278-0.381 4.809-0.754 7.471l-3.677 20.12c-2.153 12.282-2.783 18.859-2.783 22.92 c0 3.164-3.545 5.186-7.214 5.317c-3.794 0.125-7.083-2.285-6.841-5.449c0.256-2.783 1.018-7.339 1.655-11.133 c0.498-3.164 0 0 0-0.645c-1.523 2.41-3.552 5.581-5.193 7.727l-0.762 0.755h0.125c-2.263 3.047-7.712 10.005-19.102 10.01 c-11.646 0-18.611-6.717-18.611-17.088c0-1.516 0.132-2.907 0.381-4.563c0.886-4.307 3.289-10.379 11.016-16.069 c10.122-7.343 23.027-7.218 27.715-7.218h0.63c1.904 0 3.926-0.125 7.22 0c0.125-1.011 0.498-2.021 0.63-3.036 c0.374-1.769 0.498-3.285 0.498-4.933c0-6.581-3.04-11.771-11.77-11.141c-5.691 0.377-8.599 1.007-10.239 1.65 c-3.296 1.132-7.603 1.641-8.357-1.015c-0.513-2.406 0.249-5.317 3.794-6.328c3.42-1.267 7.595-2.281 14.934-2.281 c1.143 0 2.53 0.13 3.92 0.128c4.05 0.26 12.03 0.63 16.71 3.922C-149.031-13.363-147.647-9.822-147.647-5.636z M-165.115 14.227h1.143c-2.651-0.381-5.435-0.63-8.599-0.63c-2.534 0-6.833 0.264-9.998 1.27 c-3.42 1.128-10.767 4.937-12.539 14.927c-0.879 5.32 0.64 11.77 8.1 11.77c4.812 0 8.738-2.533 12.026-5.456 C-168.521 30.047-167.254 23.353-165.115 14.227z" class="style_white"/><path d="M-133.826 3.222c1.267-6.833 1.648-11.14 1.516-14.048c-0.249-3.039 1.523-6.203 5.317-6.712 c1.26-0.128 2.402-0.256 3.42-0.384h-0.125c3.794-0.758 7.34 1.77 7.09 4.815c-0.132 0.758-0.505 2.281-0.886 4.05 s-1.011 3.794-1.399 5.819c2.527-4.559 6.079-9.997 10.627-13.033c2.41-1.523 4.937-2.655 7.214-3.42 c3.801-1.139 6.72 2.15 5.7 5.317c-1.26 3.42-5.566 5.57-9.741 6.577c-5.325 1.395-12.283 6.961-15.703 19.36 c-1.897 6.717-4.805 23.416-5.442 31.766c-0.381 3.677-3.926 6.577-8.357 6.46h-0.63c-3.794 0-7.214-2.783-6.328-5.947 c0.63-2.153 1.267-4.438 1.523-6.335L-133.826 3.222z" class="style_white"/><path d="M-46.36-19.311c3.289 0.76 4.31 4.18 3.29 6.712c-1.143 2.912-5.193 3.164-8.357 1.897h0.132 c-1.523-0.502-3.296-0.883-5.449-0.883c-16.326 0-25.95 17.212-25.95 34.681c0 6.2 1.14 13.8 7.35 17.72 c3.281 2.15 6.71 2.92 10.12 2.922c3.04 0 5.574-0.505 8.101-1.398c2.783-0.762 4.69 1.52 3.93 3.66 c-1.143 2.915-4.556 5.068-8.232 5.574c-1.897 0.256-4.307 0.381-6.453 0.381c-19.365 0-31.018-10.76-31.018-27.972 c0-19.742 14.055-44.169 44.048-44.169C-51.289-20.193-48.506-19.82-46.36-19.311z" class="style_white"/><path d="M-36.597-8.683c2.534-13.418 3.545-20.248 3.42-24.053c-0.132-2.908 1.011-6.075 4.68-6.449 c1.392-0.128 2.651-0.256 4.175-0.501c3.926-0.765 7.84 1.77 7.09 5.061c-0.769 3.669-1.399 6.833-2.659 13.16 c-1.011 5.317-2.021 10.888-3.04 16.326c2.285-4.051 5.317-8.603 9.624-11.265c5.449-3.549 10.759-4.179 14.561-4.179 c8.73 0 17.21 3.8 17.21 13.803c0 2.779-0.505 6.071-1.648 12.524l-4.937 28.348c-0.505 3.289-0.886 6.966-1.135 9.37 c-0.256 3.662-4.05 6.445-8.599 6.445c-3.801 0-7.09-3.024-6.46-6.064c0.637-2.285 1.267-5.581 2.153-10.518L2.778 4.6 C3.159 2.45 3.54-0.081 3.54-1.978c0-4.933-1.772-8.602-8.101-8.602c-4.812 0-9.749 2.406-13.674 6.71 c-2.278 2.402-5.691 8.101-8.73 20.248c-0.63 2.915-3.669 18.348-4.812 26.711c-0.63 4.051-4.548 6.966-9.368 6.97 c-3.669 0-6.577-2.915-5.691-5.947c1.011-3.047 2.153-8.481 3.794-17.344L-36.597-8.683z" class="style_white"/><path d="M54.809 43.729c4.937 0 8.862-1.267 11.895-2.534c2.41-1.143 5.19 0.63 4.56 2.92 c-0.886 2.915-3.288 5.698-7.214 6.709c-3.164 0.63-7.09 1.26-12.151 1.26c-21.138-0.63-26.323-12.275-26.58-28.096 c0-13.799 6.709-25.06 10.883-30.249C44.936-17.029 56.831-20.57 65.569-20.57c12.78 0 19.23 6.58 19.23 15.19 c0 3.797-1.641 8.737-4.3 12.788c-3.156 4.669-8.474 8.222-12.648 10.374c-8.481 4.176-16.963 4.549-26.836 4.93 c-0.125 0.381-0.381 2.285-0.381 4.819C40.63 33.72 42.53 43.85 54.81 43.729z M50.122-5.893 c-5.061 5.819-7.713 18.479-8.73 25.701c7.844-0.77 16.333-5.705 22.918-11.909C67.591 4.74 70 0.3 70-4.761 c0-5.698-3.413-8.353-7.214-8.353c-2.285 0-7.083 0.886-12.525 7.214h-0.139V-5.893z" class="style_white"/><path d="M146.333-13.873c6.328 6.2 6.58 13.8 6.58 17.469c0 19.742-12.531 48.219-40.759 48.22 c-6.966 0-13.923-2.021-18.735-6.328c-2.915-2.783-7.603-8.232-7.603-19.614c0-20.38 13.294-46.201 41.022-46.201 C135.449-20.321 142.165-18.168 146.333-13.873z M133.684-8.804c-1.523-1.392-4.439-3.417-8.738-3.417 c-19.233 0-23.921 29.612-23.921 39.617c0 12.03 5.7 16.45 12.28 16.45c21.263 0 24.178-34.677 24.178-40.752 C137.477 0.06 137.346-5.391 133.684-8.804z" class="style_white"/><path d="M197.184-18.956c8.365 2.56 10.82 8.86 10.82 12.99c0 9.148-7.471 15.842-15.945 18.6 c-1.574 0.49-3.148 0.981-4.826 1.479c1.678 0.1 3.54 0.3 5.22 0.498c8.262 1.27 13.09 5.41 13.09 11.89 c0 16.048-14.084 25.005-32.088 25.005c-5.998 0-9.25-0.396-12.012-0.981c-2.746-0.688-4.32-3.457-3.441-5.713h-0.104 c0.791-2.358 4.036-2.959 6.592-1.875c1.875 0.98 4.63 1.77 8.28 1.772c16.135 0 19.98-10.43 19.98-16.238 c0-4.533-1.575-10.041-16.143-10.041c-1.868 0-3.736 0.19-5.215 0.396c-2.168 0.198-4.329-1.575-4.036-3.245 c0.593-2.168 3.259-3.64 6.101-3.64h0.989c12.891 0 20.368-7.185 20.368-15.253c0-4.823-3.148-8.565-10.137-8.565 c-2.754 0-4.922 0.396-6.701 0.688c-1.574 0.399-3.039 0.787-4.526 1.381c-2.263 0.787-4.922-0.389-4.534-2.355 c0.594-2.856 2.857-5.317 6.204-6.105c3.735-0.886 8.364-1.769 13.776-1.769C192.168-20.036 194.819-19.647 197.184-18.956z" class="style_grey"/><path d="M221.325 0.828c1.282-6.991 1.575-11.415 1.48-14.271c-0.11-2.849 2.058-5.709 5.609-5.61 c1.868 0.1 3.74 0.19 6 0.194c1.084 0 3.74 0 6.497-0.096c2.855-0.099 5.801-0.197 6.986-0.197 c6.299 0 20.96 0 26.09 14.37c1.172 3.25 1.68 6.7 1.68 9.745c0 6.885-2.073 15.154-4.731 21.55 c-10.145 23.027-29.422 23.921-37.098 23.921c-0.886 0-3.545 0-6.299-0.11c-2.563-0.109-5.808-0.197-6.797-0.197 c-0.886 0-1.867 0-3.047 0.103c-0.3 0-0.688 0.103-1.084 0.103c-2.951 0.103-5.316-2.358-4.533-4.819 c0.887-2.754 2.065-7.676 3.742-16.04C217.583 20.02 219.55 10.28 221.32 0.828z M226.643 35.08 c-0.396 2.16-0.689 3.845-0.689 5.119c0 4.13 2.16 4.23 8.26 4.227c6.299 0 15.462-1.18 22.047-12.693 c2.058-3.846 6.4-14.956 6.4-25.195c0-15.063-7.777-19.493-20.961-19.493c-2.066 0-3.055 0.194-4.336 0.4 c-0.579 0.099-1.465 0.197-2.264 0.3h0.887c-0.784 3.348-1.377 5.903-2.066 9.354C231.66 9.19 228.91 22.97 226.64 35.08z" class="style_grey"/></svg>